<?xml version="1.0" encoding="utf-8"?>
<!-- Generator: Adobe Illustrator 17.0.0, SVG Export Plug-In . SVG Version: 6.00 Build 0)  -->
<!DOCTYPE svg PUBLIC "-//W3C//DTD SVG 1.1//EN" "http://www.w3.org/Graphics/SVG/1.1/DTD/svg11.dtd">
<svg version="1.1" id="Calque_1" xmlns="http://www.w3.org/2000/svg" xmlns:xlink="http://www.w3.org/1999/xlink" x="0px" y="0px"
	 width="117.457px" height="50.011px" viewBox="0 0 117.457 50.011" enable-background="new 0 0 117.457 50.011"
	 xml:space="preserve">
<path fill="#63666A" d="M25.695,36.94c-1.294-0.809-1.294-0.809-1.294-0.809c-0.865,1.294-0.865,1.294-0.865,1.294
	c-1.51,2.43-3.509,3.62-6.101,3.62c-4.425,0-7.771-3.346-7.771-7.722c0-4.429,3.347-7.775,7.771-7.775
	c2.592,0,4.537,1.132,6.154,3.615c0.812,1.3,0.812,1.3,0.812,1.3c1.294-0.814,1.294-0.814,1.294-0.814
	c5.4-3.184,5.4-3.184,5.4-3.184c1.455-0.864,1.455-0.864,1.455-0.864c-0.969-1.406-0.969-1.406-0.969-1.406
	c-1.623-2.377-3.509-4.214-5.67-5.453c-2.483-1.461-5.345-2.162-8.476-2.162c-6.532,0-10.579,2.808-12.843,5.185
	C1.676,24.841,0,29.055,0,33.323c0,4.21,1.676,8.423,4.591,11.5c2.264,2.377,6.312,5.188,12.843,5.188
	c2.861,0,5.723-0.759,8.261-2.16c2.485-1.353,4.533-3.244,5.939-5.513c0.864-1.4,0.864-1.4,0.864-1.4
	c-1.402-0.809-1.402-0.809-1.402-0.809L25.695,36.94z"/>
<path fill="#63666A" d="M39.568,20.633c-1.565,0-3.078-0.491-4.265-1.298c-0.376,0-0.376,0-0.376,0c0,1.566,0,1.566,0,1.566
	c0,26.787,0,26.787,0,26.787c0,1.563,0,1.563,0,1.563c1.563,0,1.563,0,1.563,0c6.154,0,6.154,0,6.154,0c1.618,0,1.618,0,1.618,0
	c0-1.563,0-1.563,0-1.563c0-26.787,0-26.787,0-26.787c0-1.566,0-1.566,0-1.566c-0.431,0-0.431,0-0.431,0
	C42.644,20.142,41.134,20.633,39.568,20.633z"/>
<path fill="#63666A" d="M63.964,41.046c-4.208,0-7.556-3.454-7.556-7.722s3.348-7.775,7.556-7.775c3.998,0,7.399,3.562,7.399,7.775
	C71.363,37.478,67.962,41.046,63.964,41.046z M72.711,17.336c-1.563,0-1.563,0-1.563,0c0,1.459,0,1.459,0,1.459
	c-2.107-1.459-4.754-2.214-7.668-2.214c-4.748,0-9.066,1.946-12.252,5.453c-2.916,3.131-4.537,7.237-4.537,11.29
	c0,4.155,1.568,8.316,4.318,11.392c3.023,3.405,7.345,5.296,12.146,5.296c2.162,0,4.263-0.434,6.101-1.298
	c0.701-0.27,1.294-0.646,1.891-1.024c0,1.563,0,1.563,0,1.563c1.563,0,1.563,0,1.563,0c6.209,0,6.209,0,6.209,0
	c1.563,0,1.563,0,1.563,0c0-1.563,0-1.563,0-1.563c0-28.787,0-28.787,0-28.787c0-1.566,0-1.566,0-1.566c-1.563,0-1.563,0-1.563,0
	H72.711z"/>
<path fill="#63666A" d="M100.024,41.046c-4.371,0-7.719-3.346-7.719-7.722c0-4.429,3.348-7.775,7.719-7.775
	c4.424,0,7.772,3.346,7.772,7.775C107.795,37.699,104.447,41.046,100.024,41.046z M112.871,21.765
	c-2.267-2.377-6.317-5.185-12.847-5.185c-6.477,0-10.527,2.808-12.794,5.185c-2.916,3.076-4.586,7.29-4.586,11.558
	c0,4.21,1.67,8.423,4.586,11.5c2.267,2.377,6.317,5.188,12.794,5.188c6.53,0,10.58-2.811,12.847-5.188
	c2.916-3.076,4.586-7.29,4.586-11.5C117.457,29.055,115.786,24.841,112.871,21.765z"/>
<path fill="#FE5000" d="M39.568,17.336c2.916,0,5.291-2.377,5.291-5.292c0-0.862-0.215-1.676-0.597-2.43
	c3.89-2.755,3.89-2.755,3.89-2.755c0.809,0.971,1.941,1.565,3.292,1.565c1.565,0,2.97-0.864,3.671-2.156
	c4.586,2.375,4.586,2.375,4.586,2.375s0,0,0,0.055c0,1.833,1.513,3.346,3.401,3.346c1.837,0,3.292-1.461,3.346-3.293
	c4.644-2.214,4.644-2.214,4.644-2.214c0.055,0.055,0.108,0.108,0.215,0.162c0,0,0,0,0.055,0c0.053,0.053,0.053,0.053,0.108,0.108
	c0.055,0,0.055,0,0.108,0.053c0,0,0.055,0,0.108,0.055h0.055c0.053,0.053,0.108,0.053,0.108,0.053c0.053,0,0.053,0.055,0.108,0.055
	c0.053,0,0.053,0,0.108,0c0.053,0.055,0.053,0.055,0.108,0.055c0.053,0,0.053,0,0.108,0c0.053,0,0.053,0,0.108,0.053
	c0.053,0,0.053,0,0.108,0s0.055,0,0.108,0c0.055,0,0.055,0,0.108,0c0.055,0,0.055,0,0.108,0c0.055,0,0.055,0,0.108,0
	c0.055,0,0.108-0.053,0.108-0.053c0.055,0,0.108,0,0.108,0c0.055,0,0.108,0,0.108-0.055c0.055,0,0.108,0,0.108,0
	c0.055,0,0.108-0.055,0.108-0.055c0.055,0,0.11,0,0.11,0c0.053-0.053,0.108-0.053,0.108-0.053c0.053-0.055,0.053-0.055,0.108-0.055
	c0.053-0.053,0.053-0.053,0.108-0.053c0.053-0.055,0.053-0.055,0.108-0.055c0-0.053,0.053-0.053,0.108-0.108l0.053-0.053
	c0.055-0.055,0.108-0.108,0.162-0.162c0.92-0.92,0.92-2.43,0-3.35c-0.055-0.055-0.108-0.108-0.162-0.162
	c-0.431-0.323-0.969-0.539-1.508-0.539c-0.54,0-1.024,0.215-1.457,0.539c-0.108,0.055-0.166,0.108-0.219,0.162
	c-0.54,0.542-0.756,1.351-0.648,2.052c-4.208,2.054-4.208,2.054-4.208,2.054c-0.539-1.134-1.672-1.891-3.023-1.891
	c-1.294,0-2.377,0.701-2.97,1.784c-4.531-2.377-4.531-2.377-4.531-2.377c0.053-0.162,0.053-0.323,0.053-0.486
	c0-2.322-1.891-4.214-4.21-4.214c-2.322,0-4.214,1.891-4.214,4.214c0,0.431,0.055,0.864,0.162,1.24
	c-4.047,2.916-4.047,2.916-4.047,2.916c-0.971-1.024-2.322-1.618-3.777-1.618c-2.97,0-5.347,2.377-5.347,5.293
	C34.221,14.959,36.598,17.336,39.568,17.336z"/>
</svg>
